<svg width="169" height="38" viewBox="0 0 169 38" fill="none" xmlns="http://www.w3.org/2000/svg">
<rect y="0.222168" width="169" height="37.5556" rx="18.7778" fill="black"/>
<path d="M26.0574 23H24.9648L22.7252 19.1762H20.0485V23H19.0925V13.4404H22.9164C23.6993 13.4404 24.3731 13.7226 24.9375 14.2871C25.502 14.8516 25.7842 15.5253 25.7842 16.3083C25.7842 16.9638 25.5885 17.5419 25.197 18.0427C24.8237 18.5343 24.3321 18.8712 23.7221 19.0533L26.0574 23ZM22.9164 14.3417H20.0485V18.2748H22.9164C23.4444 18.2748 23.8951 18.0836 24.2684 17.7013C24.6416 17.3007 24.8283 16.8363 24.8283 16.3083C24.8283 15.7711 24.6416 15.3068 24.2684 14.9153C23.8951 14.5329 23.4444 14.3417 22.9164 14.3417ZM30.3723 16.0078C31.392 16.0078 32.2068 16.3675 32.8168 17.0867C33.445 17.7968 33.7591 18.639 33.7591 19.6132C33.7591 19.6587 33.75 19.7998 33.7318 20.0365H27.7366C27.8276 20.7194 28.119 21.2656 28.6106 21.6753C29.1023 22.085 29.7168 22.2899 30.4543 22.2899C31.4922 22.2899 32.2251 21.9029 32.653 21.1291L33.445 21.5934C33.1446 22.085 32.7303 22.4719 32.2023 22.7542C31.6833 23.0273 31.0961 23.1639 30.4406 23.1639C29.3663 23.1639 28.4923 22.827 27.8185 22.1533C27.1448 21.4796 26.808 20.6238 26.808 19.5859C26.808 18.5571 27.1403 17.7058 27.8049 17.0321C28.4695 16.3493 29.3253 16.0078 30.3723 16.0078ZM30.3723 16.8819C29.6622 16.8819 29.0658 17.0913 28.5833 17.5101C28.1099 17.9289 27.8276 18.4797 27.7366 19.1625H32.8305C32.7303 18.4342 32.4527 17.8742 31.9974 17.4827C31.524 17.0822 30.9823 16.8819 30.3723 16.8819ZM38.6801 13.2765V14.1505C38.0155 14.0959 37.5193 14.2097 37.1915 14.492C36.8729 14.7742 36.7135 15.2431 36.7135 15.8986V16.1717H38.6801V17.0457H36.7135V23H35.8122V17.0457H34.6514V16.1717H35.8122V15.8986C35.8122 14.9973 36.058 14.319 36.5497 13.8638C37.0504 13.4085 37.7606 13.2128 38.6801 13.2765ZM40.8148 16.1717V17.3052C41.2336 16.4767 41.9528 16.0625 42.9725 16.0625V16.9365C42.317 16.9365 41.7935 17.1277 41.402 17.5101C41.0105 17.8833 40.8148 18.4478 40.8148 19.2035V23H39.9135V16.1717H40.8148ZM47.2222 16.0078C48.2419 16.0078 49.0567 16.3675 49.6667 17.0867C50.2949 17.7968 50.609 18.639 50.609 19.6132C50.609 19.6587 50.5999 19.7998 50.5817 20.0365H44.5865C44.6775 20.7194 44.9688 21.2656 45.4605 21.6753C45.9521 22.085 46.5667 22.2899 47.3041 22.2899C48.342 22.2899 49.0749 21.9029 49.5028 21.1291L50.2949 21.5934C49.9945 22.085 49.5802 22.4719 49.0522 22.7542C48.5332 23.0273 47.946 23.1639 47.2905 23.1639C46.2161 23.1639 45.3421 22.827 44.6684 22.1533C43.9947 21.4796 43.6578 20.6238 43.6578 19.5859C43.6578 18.5571 43.9901 17.7058 44.6547 17.0321C45.3194 16.3493 46.1752 16.0078 47.2222 16.0078ZM47.2222 16.8819C46.512 16.8819 45.9157 17.0913 45.4332 17.5101C44.9597 17.9289 44.6775 18.4797 44.5865 19.1625H49.6804C49.5802 18.4342 49.3025 17.8742 48.8473 17.4827C48.3739 17.0822 47.8322 16.8819 47.2222 16.8819ZM52.7593 17.9607C52.7593 18.4888 53.2281 18.8757 54.1659 19.1215C54.4299 19.1853 54.6029 19.2308 54.6848 19.2581C54.7668 19.2763 54.9261 19.3264 55.1628 19.4083C55.4086 19.4812 55.5771 19.5449 55.6681 19.5995C55.7683 19.6541 55.9048 19.7406 56.0778 19.859C56.2508 19.9682 56.3737 20.082 56.4465 20.2004C56.5194 20.3097 56.5877 20.4553 56.6514 20.6374C56.7151 20.8104 56.747 20.997 56.747 21.1973C56.747 21.78 56.5148 22.2534 56.0505 22.6176C55.6044 22.9818 55.0126 23.1639 54.2751 23.1639C53.6378 23.1639 53.087 23.0228 52.6227 22.7405C52.1584 22.4492 51.8306 22.0668 51.6394 21.5934L52.4042 21.1427C52.5317 21.4978 52.7593 21.78 53.087 21.9894C53.4239 22.1897 53.8199 22.2899 54.2751 22.2899C54.7395 22.2899 55.1173 22.1988 55.4086 22.0167C55.7 21.8346 55.8457 21.5615 55.8457 21.1973C55.8457 20.6693 55.3768 20.2823 54.439 20.0365C54.175 19.9728 54.002 19.9318 53.9201 19.9136C53.8381 19.8863 53.6743 19.8362 53.4284 19.7634C53.1917 19.6815 53.0233 19.6132 52.9231 19.5585C52.8321 19.5039 52.7001 19.422 52.5271 19.3127C52.3541 19.1944 52.2312 19.0806 52.1584 18.9713C52.0855 18.853 52.0173 18.7073 51.9535 18.5343C51.8898 18.3522 51.8579 18.161 51.8579 17.9607C51.8579 17.4054 52.0764 16.941 52.5134 16.5678C52.9687 16.1945 53.5286 16.0078 54.1932 16.0078C54.7395 16.0078 55.222 16.1307 55.6408 16.3766C56.0687 16.6224 56.3828 16.9638 56.5831 17.4008L55.832 17.8378C55.5771 17.2005 55.0308 16.8819 54.1932 16.8819C53.7835 16.8819 53.4421 16.9775 53.169 17.1686C52.8958 17.3598 52.7593 17.6239 52.7593 17.9607ZM61.6527 16.0078C62.4721 16.0078 63.123 16.2628 63.6056 16.7726C64.0881 17.2733 64.3294 17.9516 64.3294 18.8074V23H63.428V18.8074C63.428 18.1974 63.2642 17.724 62.9364 17.3872C62.6177 17.0503 62.1625 16.8819 61.5707 16.8819C60.8879 16.8819 60.3462 17.0958 59.9456 17.5237C59.5541 17.9516 59.3584 18.5844 59.3584 19.422V23H58.457V13.4404H59.3584V17.2369C59.8682 16.4175 60.633 16.0078 61.6527 16.0078ZM72.7366 21.8938L74.9489 16.1717H75.9049L72.9824 23.6282C72.7093 24.3201 72.3269 24.8527 71.8352 25.226C71.3527 25.6084 70.8156 25.7768 70.2238 25.7313V24.8846C71.0432 24.9848 71.6668 24.5113 72.0947 23.4643L72.2723 23.041L69.2132 16.1717H70.1691L72.7366 21.8938ZM82.7227 22.1396C82.0217 22.8225 81.175 23.1639 80.1826 23.1639C79.172 23.1639 78.3208 22.8225 77.6288 22.1396C76.9369 21.4477 76.5909 20.5964 76.5909 19.5859C76.5909 18.5753 76.9369 17.7286 77.6288 17.0457C78.3208 16.3538 79.172 16.0078 80.1826 16.0078C81.1841 16.0078 82.0308 16.3538 82.7227 17.0457C83.4238 17.7286 83.7743 18.5753 83.7743 19.5859C83.7743 20.5873 83.4238 21.4386 82.7227 22.1396ZM78.2707 21.5114C78.7896 22.0304 79.4269 22.2899 80.1826 22.2899C80.9383 22.2899 81.5756 22.0304 82.0945 21.5114C82.6135 20.9743 82.873 20.3324 82.873 19.5859C82.873 18.8302 82.6135 18.1929 82.0945 17.6739C81.5756 17.1459 80.9383 16.8819 80.1826 16.8819C79.4269 16.8819 78.7896 17.1459 78.2707 17.6739C77.7517 18.1929 77.4923 18.8302 77.4923 19.5859C77.4923 20.3324 77.7517 20.9743 78.2707 21.5114ZM90.3628 19.7497V16.1717H91.2642V23H90.3628V21.9348C89.853 22.7542 89.0882 23.1639 88.0685 23.1639C87.2491 23.1639 86.5982 22.9135 86.1156 22.4128C85.6331 21.9029 85.3918 21.2201 85.3918 20.3643V16.1717H86.2932V20.3643C86.2932 20.9743 86.4525 21.4477 86.7712 21.7846C87.0989 22.1214 87.5587 22.2899 88.1505 22.2899C88.8333 22.2899 89.3705 22.0759 89.7619 21.648C90.1625 21.2201 90.3628 20.5873 90.3628 19.7497ZM94.3453 16.1717V17.3052C94.7641 16.4767 95.4834 16.0625 96.5031 16.0625V16.9365C95.8475 16.9365 95.324 17.1277 94.9326 17.5101C94.5411 17.8833 94.3453 18.4478 94.3453 19.2035V23H93.444V16.1717H94.3453ZM108.24 21.8392L109.92 16.1717H110.849L108.746 23H107.762L106.001 17.4964L104.239 23H103.256L101.152 16.1717H102.081L103.761 21.8392L105.55 16.1717H106.451L108.24 21.8392ZM115.369 16.0078C116.389 16.0078 117.203 16.3675 117.813 17.0867C118.442 17.7968 118.756 18.639 118.756 19.6132C118.756 19.6587 118.747 19.7998 118.728 20.0365H112.733C112.824 20.7194 113.116 21.2656 113.607 21.6753C114.099 22.085 114.713 22.2899 115.451 22.2899C116.489 22.2899 117.222 21.9029 117.65 21.1291L118.442 21.5934C118.141 22.085 117.727 22.4719 117.199 22.7542C116.68 23.0273 116.093 23.1639 115.437 23.1639C114.363 23.1639 113.489 22.827 112.815 22.1533C112.141 21.4796 111.805 20.6238 111.805 19.5859C111.805 18.5571 112.137 17.7058 112.802 17.0321C113.466 16.3493 114.322 16.0078 115.369 16.0078ZM115.369 16.8819C114.659 16.8819 114.062 17.0913 113.58 17.5101C113.107 17.9289 112.824 18.4797 112.733 19.1625H117.827C117.727 18.4342 117.449 17.8742 116.994 17.4827C116.521 17.0822 115.979 16.8819 115.369 16.8819ZM124.123 16.0078C125.097 16.0078 125.925 16.3538 126.608 17.0457C127.3 17.7377 127.646 18.5844 127.646 19.5859C127.646 20.5873 127.3 21.434 126.608 22.126C125.925 22.8179 125.097 23.1639 124.123 23.1639C122.912 23.1639 121.992 22.6631 121.364 21.6617V23H120.463V13.4404H121.364V17.5101C121.992 16.5086 122.912 16.0078 124.123 16.0078ZM122.142 21.5114C122.661 22.0304 123.299 22.2899 124.054 22.2899C124.81 22.2899 125.447 22.0304 125.966 21.5114C126.485 20.9743 126.745 20.3324 126.745 19.5859C126.745 18.8302 126.485 18.1929 125.966 17.6739C125.447 17.1459 124.81 16.8819 124.054 16.8819C123.299 16.8819 122.661 17.1459 122.142 17.6739C121.623 18.1929 121.364 18.8302 121.364 19.5859C121.364 20.3324 121.623 20.9743 122.142 21.5114ZM129.995 17.9607C129.995 18.4888 130.463 18.8757 131.401 19.1215C131.665 19.1853 131.838 19.2308 131.92 19.2581C132.002 19.2763 132.161 19.3264 132.398 19.4083C132.644 19.4812 132.812 19.5449 132.903 19.5995C133.004 19.6541 133.14 19.7406 133.313 19.859C133.486 19.9682 133.609 20.082 133.682 20.2004C133.755 20.3097 133.823 20.4553 133.887 20.6374C133.95 20.8104 133.982 20.997 133.982 21.1973C133.982 21.78 133.75 22.2534 133.286 22.6176C132.84 22.9818 132.248 23.1639 131.51 23.1639C130.873 23.1639 130.322 23.0228 129.858 22.7405C129.394 22.4492 129.066 22.0668 128.875 21.5934L129.64 21.1427C129.767 21.4978 129.995 21.78 130.322 21.9894C130.659 22.1897 131.055 22.2899 131.51 22.2899C131.975 22.2899 132.353 22.1988 132.644 22.0167C132.935 21.8346 133.081 21.5615 133.081 21.1973C133.081 20.6693 132.612 20.2823 131.674 20.0365C131.41 19.9728 131.237 19.9318 131.155 19.9136C131.073 19.8863 130.91 19.8362 130.664 19.7634C130.427 19.6815 130.259 19.6132 130.158 19.5585C130.067 19.5039 129.935 19.422 129.762 19.3127C129.589 19.1944 129.467 19.0806 129.394 18.9713C129.321 18.853 129.253 18.7073 129.189 18.5343C129.125 18.3522 129.093 18.161 129.093 17.9607C129.093 17.4054 129.312 16.941 129.749 16.5678C130.204 16.1945 130.764 16.0078 131.429 16.0078C131.975 16.0078 132.457 16.1307 132.876 16.3766C133.304 16.6224 133.618 16.9638 133.818 17.4008L133.067 17.8378C132.812 17.2005 132.266 16.8819 131.429 16.8819C131.019 16.8819 130.677 16.9775 130.404 17.1686C130.131 17.3598 129.995 17.6239 129.995 17.9607ZM136.799 14.0686C136.799 14.2507 136.735 14.4055 136.607 14.5329C136.48 14.6604 136.325 14.7241 136.143 14.7241C135.961 14.7241 135.806 14.6604 135.679 14.5329C135.551 14.4055 135.488 14.2507 135.488 14.0686C135.488 13.8865 135.551 13.7317 135.679 13.6043C135.806 13.4768 135.961 13.4131 136.143 13.4131C136.325 13.4131 136.48 13.4768 136.607 13.6043C136.735 13.7317 136.799 13.8865 136.799 14.0686ZM136.594 23H135.692V16.1717H136.594V23ZM142.399 16.1717V17.0457H140.432V21.1837C140.432 21.557 140.505 21.8255 140.65 21.9894C140.796 22.1442 141.015 22.2261 141.306 22.2352C141.597 22.2352 141.962 22.2261 142.399 22.2079V23C141.424 23.1457 140.701 23.0774 140.227 22.7952C139.763 22.5038 139.531 21.9667 139.531 21.1837V17.0457H138.097V16.1717H139.531V14.5329L140.432 14.2598V16.1717H142.399ZM146.915 16.0078C147.935 16.0078 148.75 16.3675 149.36 17.0867C149.988 17.7968 150.302 18.639 150.302 19.6132C150.302 19.6587 150.293 19.7998 150.275 20.0365H144.279C144.37 20.7194 144.662 21.2656 145.153 21.6753C145.645 22.085 146.26 22.2899 146.997 22.2899C148.035 22.2899 148.768 21.9029 149.196 21.1291L149.988 21.5934C149.687 22.085 149.273 22.4719 148.745 22.7542C148.226 23.0273 147.639 23.1639 146.983 23.1639C145.909 23.1639 145.035 22.827 144.361 22.1533C143.688 21.4796 143.351 20.6238 143.351 19.5859C143.351 18.5571 143.683 17.7058 144.348 17.0321C145.012 16.3493 145.868 16.0078 146.915 16.0078ZM146.915 16.8819C146.205 16.8819 145.609 17.0913 145.126 17.5101C144.653 17.9289 144.37 18.4797 144.279 19.1625H149.373C149.273 18.4342 148.995 17.8742 148.54 17.4827C148.067 17.0822 147.525 16.8819 146.915 16.8819Z" fill="white"/>
</svg>
