<svg width="106" height="24" viewBox="0 0 106 24" fill="none" xmlns="http://www.w3.org/2000/svg">
<rect y="0.222168" width="106" height="23.5556" rx="11.7778" fill="black"/>
<path d="M16.0537 14H15.3685L13.9637 11.6016H12.2848V14H11.6853V8.00404H14.0836C14.5747 8.00404 14.9973 8.18106 15.3514 8.53511C15.7054 8.88916 15.8824 9.31173 15.8824 9.80283C15.8824 10.214 15.7597 10.5766 15.5141 10.8907C15.28 11.199 14.9716 11.4103 14.589 11.5245L16.0537 14ZM14.0836 8.56937H12.2848V11.0363H14.0836C14.4148 11.0363 14.6975 10.9164 14.9316 10.6765C15.1658 10.4253 15.2828 10.134 15.2828 9.80283C15.2828 9.46591 15.1658 9.17468 14.9316 8.92913C14.6975 8.68929 14.4148 8.56937 14.0836 8.56937ZM18.7602 9.61438C19.3997 9.61438 19.9108 9.83995 20.2934 10.2911C20.6874 10.7365 20.8844 11.2647 20.8844 11.8757C20.8844 11.9043 20.8787 11.9928 20.8673 12.1413H17.107C17.1641 12.5695 17.3468 12.9122 17.6552 13.1691C17.9635 13.4261 18.349 13.5546 18.8115 13.5546C19.4625 13.5546 19.9222 13.3119 20.1906 12.8265L20.6874 13.1177C20.499 13.4261 20.2392 13.6688 19.9079 13.8458C19.5825 14.0171 19.2141 14.1028 18.803 14.1028C18.1291 14.1028 17.5809 13.8915 17.1584 13.4689C16.7358 13.0464 16.5245 12.5096 16.5245 11.8586C16.5245 11.2133 16.7329 10.6794 17.1498 10.2568C17.5667 9.82853 18.1035 9.61438 18.7602 9.61438ZM18.7602 10.1626C18.3147 10.1626 17.9407 10.2939 17.638 10.5566C17.3411 10.8193 17.1641 11.1648 17.107 11.5931H20.302C20.2392 11.1362 20.065 10.785 19.7795 10.5395C19.4825 10.2882 19.1427 10.1626 18.7602 10.1626ZM23.9709 7.90125V8.44945C23.5541 8.41519 23.2429 8.48657 23.0373 8.6636C22.8374 8.84062 22.7375 9.13471 22.7375 9.54586V9.71717H23.9709V10.2654H22.7375V14H22.1722V10.2654H21.4441V9.71717H22.1722V9.54586C22.1722 8.98052 22.3263 8.5551 22.6347 8.26958C22.9488 7.98405 23.3942 7.86128 23.9709 7.90125ZM25.3099 9.71717V10.4281C25.5725 9.90847 26.0237 9.64865 26.6632 9.64865V10.1968C26.2521 10.1968 25.9237 10.3168 25.6782 10.5566C25.4326 10.7907 25.3099 11.1448 25.3099 11.6187V14H24.7445V9.71717H25.3099ZM29.3287 9.61438C29.9683 9.61438 30.4794 9.83995 30.862 10.2911C31.256 10.7365 31.453 11.2647 31.453 11.8757C31.453 11.9043 31.4473 11.9928 31.4359 12.1413H27.6755C27.7326 12.5695 27.9154 12.9122 28.2237 13.1691C28.5321 13.4261 28.9175 13.5546 29.3801 13.5546C30.0311 13.5546 30.4908 13.3119 30.7592 12.8265L31.256 13.1177C31.0675 13.4261 30.8077 13.6688 30.4765 13.8458C30.151 14.0171 29.7827 14.1028 29.3715 14.1028C28.6977 14.1028 28.1495 13.8915 27.7269 13.4689C27.3043 13.0464 27.0931 12.5096 27.0931 11.8586C27.0931 11.2133 27.3015 10.6794 27.7184 10.2568C28.1352 9.82853 28.672 9.61438 29.3287 9.61438ZM29.3287 10.1626C28.8833 10.1626 28.5093 10.2939 28.2066 10.5566C27.9097 10.8193 27.7326 11.1648 27.6755 11.5931H30.8705C30.8077 11.1362 30.6335 10.785 30.348 10.5395C30.0511 10.2882 29.7113 10.1626 29.3287 10.1626ZM32.8017 10.8393C32.8017 11.1705 33.0958 11.4132 33.6839 11.5674C33.8495 11.6073 33.958 11.6359 34.0094 11.653C34.0608 11.6644 34.1608 11.6958 34.3092 11.7472C34.4634 11.7929 34.5691 11.8329 34.6262 11.8672C34.689 11.9014 34.7746 11.9557 34.8831 12.0299C34.9916 12.0984 35.0687 12.1698 35.1144 12.244C35.1601 12.3126 35.2029 12.4039 35.2429 12.5181C35.2829 12.6266 35.3028 12.7437 35.3028 12.8693C35.3028 13.2348 35.1572 13.5317 34.866 13.7602C34.5862 13.9886 34.215 14.1028 33.7525 14.1028C33.3527 14.1028 33.0072 14.0143 32.716 13.8373C32.4248 13.6545 32.2192 13.4147 32.0993 13.1177L32.579 12.8351C32.6589 13.0578 32.8017 13.2348 33.0072 13.3661C33.2185 13.4918 33.4669 13.5546 33.7525 13.5546C34.0437 13.5546 34.2807 13.4975 34.4634 13.3833C34.6461 13.2691 34.7375 13.0978 34.7375 12.8693C34.7375 12.5381 34.4434 12.2954 33.8552 12.1413C33.6896 12.1013 33.5811 12.0756 33.5298 12.0642C33.4784 12.047 33.3756 12.0156 33.2214 11.9699C33.0729 11.9185 32.9673 11.8757 32.9045 11.8415C32.8474 11.8072 32.7646 11.7558 32.6561 11.6873C32.5476 11.613 32.4705 11.5417 32.4248 11.4731C32.3791 11.3989 32.3363 11.3075 32.2963 11.199C32.2563 11.0848 32.2363 10.9649 32.2363 10.8393C32.2363 10.4909 32.3734 10.1997 32.6475 9.96558C32.933 9.73145 33.2842 9.61438 33.7011 9.61438C34.0437 9.61438 34.3463 9.69147 34.609 9.84566C34.8774 9.99984 35.0744 10.214 35.2001 10.4881L34.7289 10.7622C34.5691 10.3625 34.2264 10.1626 33.7011 10.1626C33.4441 10.1626 33.23 10.2225 33.0586 10.3425C32.8873 10.4624 32.8017 10.628 32.8017 10.8393ZM38.3798 9.61438C38.8937 9.61438 39.302 9.77428 39.6047 10.0941C39.9073 10.4081 40.0587 10.8336 40.0587 11.3703V14H39.4933V11.3703C39.4933 10.9877 39.3905 10.6908 39.185 10.4795C38.9851 10.2682 38.6996 10.1626 38.3284 10.1626C37.9001 10.1626 37.5603 10.2968 37.3091 10.5652C37.0635 10.8336 36.9408 11.2304 36.9408 11.7558V14H36.3754V8.00404H36.9408V10.3853C37.2605 9.87135 37.7402 9.61438 38.3798 9.61438ZM45.3318 13.3062L46.7195 9.71717H47.3191L45.486 14.394C45.3147 14.828 45.0749 15.1621 44.7665 15.3962C44.4638 15.636 44.1269 15.7417 43.7557 15.7131V15.1821C44.2697 15.2449 44.6608 14.9479 44.9292 14.2912L45.0406 14.0257L43.1219 9.71717H43.7215L45.3318 13.3062ZM51.5953 13.4604C51.1556 13.8886 50.6246 14.1028 50.0021 14.1028C49.3683 14.1028 48.8343 13.8886 48.4003 13.4604C47.9663 13.0264 47.7493 12.4924 47.7493 11.8586C47.7493 11.2247 47.9663 10.6937 48.4003 10.2654C48.8343 9.83138 49.3683 9.61438 50.0021 9.61438C50.6303 9.61438 51.1613 9.83138 51.5953 10.2654C52.035 10.6937 52.2549 11.2247 52.2549 11.8586C52.2549 12.4867 52.035 13.0207 51.5953 13.4604ZM48.8029 13.0663C49.1284 13.3918 49.5281 13.5546 50.0021 13.5546C50.4761 13.5546 50.8758 13.3918 51.2013 13.0663C51.5268 12.7294 51.6895 12.3268 51.6895 11.8586C51.6895 11.3846 51.5268 10.9849 51.2013 10.6594C50.8758 10.3282 50.4761 10.1626 50.0021 10.1626C49.5281 10.1626 49.1284 10.3282 48.8029 10.6594C48.4774 10.9849 48.3147 11.3846 48.3147 11.8586C48.3147 12.3268 48.4774 12.7294 48.8029 13.0663ZM56.3873 11.9614V9.71717H56.9527V14H56.3873V13.3319C56.0676 13.8458 55.5879 14.1028 54.9483 14.1028C54.4344 14.1028 54.0261 13.9458 53.7234 13.6317C53.4208 13.3119 53.2694 12.8836 53.2694 12.3468V9.71717H53.8348V12.3468C53.8348 12.7294 53.9347 13.0264 54.1346 13.2377C54.3401 13.4489 54.6285 13.5546 54.9997 13.5546C55.428 13.5546 55.7649 13.4204 56.0105 13.152C56.2617 12.8836 56.3873 12.4867 56.3873 11.9614ZM58.8852 9.71717V10.4281C59.1479 9.90847 59.599 9.64865 60.2386 9.64865V10.1968C59.8275 10.1968 59.4991 10.3168 59.2536 10.5566C59.008 10.7907 58.8852 11.1448 58.8852 11.6187V14H58.3199V9.71717H58.8852ZM67.6004 13.2719L68.654 9.71717H69.2364L67.9173 14H67.3006L66.1956 10.548L65.0907 14H64.4739L63.1548 9.71717H63.7373L64.7909 13.2719L65.913 9.71717H66.4783L67.6004 13.2719ZM72.0717 9.61438C72.7112 9.61438 73.2223 9.83995 73.6049 10.2911C73.9989 10.7365 74.1959 11.2647 74.1959 11.8757C74.1959 11.9043 74.1902 11.9928 74.1788 12.1413H70.4185C70.4756 12.5695 70.6583 12.9122 70.9667 13.1691C71.2751 13.4261 71.6605 13.5546 72.1231 13.5546C72.774 13.5546 73.2337 13.3119 73.5021 12.8265L73.9989 13.1177C73.8105 13.4261 73.5507 13.6688 73.2195 13.8458C72.894 14.0171 72.5256 14.1028 72.1145 14.1028C71.4407 14.1028 70.8925 13.8915 70.4699 13.4689C70.0473 13.0464 69.836 12.5096 69.836 11.8586C69.836 11.2133 70.0445 10.6794 70.4613 10.2568C70.8782 9.82853 71.415 9.61438 72.0717 9.61438ZM72.0717 10.1626C71.6262 10.1626 71.2522 10.2939 70.9496 10.5566C70.6526 10.8193 70.4756 11.1648 70.4185 11.5931H73.6135C73.5507 11.1362 73.3765 10.785 73.091 10.5395C72.794 10.2882 72.4543 10.1626 72.0717 10.1626ZM77.5621 9.61438C78.1731 9.61438 78.6928 9.83138 79.1211 10.2654C79.5551 10.6994 79.7721 11.2304 79.7721 11.8586C79.7721 12.4867 79.5551 13.0178 79.1211 13.4518C78.6928 13.8858 78.1731 14.1028 77.5621 14.1028C76.8026 14.1028 76.2259 13.7887 75.8318 13.1606V14H75.2665V8.00404H75.8318V10.5566C76.2259 9.92846 76.8026 9.61438 77.5621 9.61438ZM76.3201 13.0663C76.6456 13.3918 77.0453 13.5546 77.5193 13.5546C77.9932 13.5546 78.393 13.3918 78.7185 13.0663C79.044 12.7294 79.2067 12.3268 79.2067 11.8586C79.2067 11.3846 79.044 10.9849 78.7185 10.6594C78.393 10.3282 77.9932 10.1626 77.5193 10.1626C77.0453 10.1626 76.6456 10.3282 76.3201 10.6594C75.9946 10.9849 75.8318 11.3846 75.8318 11.8586C75.8318 12.3268 75.9946 12.7294 76.3201 13.0663ZM81.2451 10.8393C81.2451 11.1705 81.5392 11.4132 82.1274 11.5674C82.293 11.6073 82.4015 11.6359 82.4529 11.653C82.5043 11.6644 82.6042 11.6958 82.7527 11.7472C82.9069 11.7929 83.0125 11.8329 83.0696 11.8672C83.1324 11.9014 83.2181 11.9557 83.3266 12.0299C83.4351 12.0984 83.5122 12.1698 83.5579 12.244C83.6036 12.3126 83.6464 12.4039 83.6864 12.5181C83.7263 12.6266 83.7463 12.7437 83.7463 12.8693C83.7463 13.2348 83.6007 13.5317 83.3095 13.7602C83.0297 13.9886 82.6585 14.1028 82.1959 14.1028C81.7962 14.1028 81.4507 14.0143 81.1595 13.8373C80.8683 13.6545 80.6627 13.4147 80.5428 13.1177L81.0224 12.8351C81.1024 13.0578 81.2451 13.2348 81.4507 13.3661C81.662 13.4918 81.9104 13.5546 82.1959 13.5546C82.4872 13.5546 82.7241 13.4975 82.9069 13.3833C83.0896 13.2691 83.181 13.0978 83.181 12.8693C83.181 12.5381 82.8869 12.2954 82.2987 12.1413C82.1331 12.1013 82.0246 12.0756 81.9732 12.0642C81.9218 12.047 81.819 12.0156 81.6649 11.9699C81.5164 11.9185 81.4107 11.8757 81.3479 11.8415C81.2908 11.8072 81.208 11.7558 81.0995 11.6873C80.991 11.613 80.9139 11.5417 80.8683 11.4731C80.8226 11.3989 80.7797 11.3075 80.7398 11.199C80.6998 11.0848 80.6798 10.9649 80.6798 10.8393C80.6798 10.4909 80.8169 10.1997 81.091 9.96558C81.3765 9.73145 81.7277 9.61438 82.1445 9.61438C82.4872 9.61438 82.7898 9.69147 83.0525 9.84566C83.3209 9.99984 83.5179 10.214 83.6435 10.4881L83.1724 10.7622C83.0125 10.3625 82.6699 10.1626 82.1445 10.1626C81.8876 10.1626 81.6734 10.2225 81.5021 10.3425C81.3308 10.4624 81.2451 10.628 81.2451 10.8393ZM85.5127 8.39806C85.5127 8.51227 85.4727 8.60935 85.3928 8.68929C85.3128 8.76924 85.2158 8.80921 85.1016 8.80921C84.9874 8.80921 84.8903 8.76924 84.8103 8.68929C84.7304 8.60935 84.6904 8.51227 84.6904 8.39806C84.6904 8.28385 84.7304 8.18677 84.8103 8.10683C84.8903 8.02688 84.9874 7.98691 85.1016 7.98691C85.2158 7.98691 85.3128 8.02688 85.3928 8.10683C85.4727 8.18677 85.5127 8.28385 85.5127 8.39806ZM85.3842 14H84.8189V9.71717H85.3842V14ZM89.0251 9.71717V10.2654H87.7916V12.8608C87.7916 13.0949 87.8373 13.2634 87.9287 13.3661C88.0201 13.4632 88.1571 13.5146 88.3399 13.5203C88.5226 13.5203 88.751 13.5146 89.0251 13.5032V14C88.4141 14.0914 87.9601 14.0485 87.6632 13.8715C87.3719 13.6888 87.2263 13.3519 87.2263 12.8608V10.2654H86.3269V9.71717H87.2263V8.68929L87.7916 8.51798V9.71717H89.0251ZM91.858 9.61438C92.4976 9.61438 93.0086 9.83995 93.3912 10.2911C93.7853 10.7365 93.9823 11.2647 93.9823 11.8757C93.9823 11.9043 93.9766 11.9928 93.9651 12.1413H90.2048C90.2619 12.5695 90.4447 12.9122 90.753 13.1691C91.0614 13.4261 91.4468 13.5546 91.9094 13.5546C92.5604 13.5546 93.0201 13.3119 93.2885 12.8265L93.7853 13.1177C93.5968 13.4261 93.337 13.6688 93.0058 13.8458C92.6803 14.0171 92.312 14.1028 91.9008 14.1028C91.227 14.1028 90.6788 13.8915 90.2562 13.4689C89.8336 13.0464 89.6224 12.5096 89.6224 11.8586C89.6224 11.2133 89.8308 10.6794 90.2477 10.2568C90.6645 9.82853 91.2013 9.61438 91.858 9.61438ZM91.858 10.1626C91.4126 10.1626 91.0385 10.2939 90.7359 10.5566C90.439 10.8193 90.2619 11.1648 90.2048 11.5931H93.3998C93.337 11.1362 93.1628 10.785 92.8773 10.5395C92.5804 10.2882 92.2406 10.1626 91.858 10.1626Z" fill="white"/>
</svg>
